<svg version="1.1" id="Layer_1" xmlns="http://www.w3.org/2000/svg" xmlns:xlink="http://www.w3.org/1999/xlink" x="0px" y="0px"
	 width="100%" viewBox="0 0 1113 1089" enable-background="new 0 0 1113 1089" xml:space="preserve">
<path fill="#349EBF" opacity="1.000000" stroke="none" 
	d="
M1.000000,579.000000 
	C1.000000,557.312439 1.000000,535.624878 1.374064,513.251831 
	C2.496464,503.538177 3.013910,494.483551 4.048316,485.488342 
	C5.526721,472.632080 6.392233,459.590820 9.287260,447.036163 
	C15.106732,421.799255 20.937283,396.449921 28.990002,371.876709 
	C36.388992,349.298370 45.915070,327.307617 55.948193,305.729492 
	C68.653122,278.405090 84.142693,252.495834 102.299034,228.410507 
	C115.923363,210.337112 130.138443,192.634583 145.147568,175.704010 
	C156.358856,163.057495 168.996353,151.621918 181.484467,140.177094 
	C192.025482,130.516678 202.869766,121.093979 214.280273,112.495621 
	C235.565994,96.455803 257.659027,81.600334 281.169006,68.866470 
	C306.679993,55.048767 332.776764,42.640480 360.129547,32.911812 
	C391.723328,21.674726 423.853821,12.477390 457.151581,7.969634 
	C474.374237,5.638073 491.687897,3.979958 508.955597,1.976054 
	C510.323090,1.817357 511.652740,1.333007 513.000000,1.000001 
	C534.687561,1.000000 556.375122,1.000000 578.747192,1.373451 
	C588.129517,2.495689 596.852295,3.031234 605.519409,4.043463 
	C618.378418,5.545273 631.320557,6.751470 644.009521,9.208477 
	C673.017639,14.825418 701.662415,21.968578 729.466492,32.168453 
	C754.828308,41.472385 779.572937,52.111984 803.344360,65.025291 
	C833.202454,81.245140 861.578613,99.605232 887.840759,121.238548 
	C907.494629,137.428421 926.940308,153.807236 943.628235,173.154495 
	C955.346680,186.740433 967.281006,200.160934 978.504944,214.148010 
	C996.570740,236.661209 1012.026001,261.009094 1025.570068,286.441162 
	C1034.642090,303.475922 1043.176025,320.944183 1050.128784,338.923065 
	C1058.761108,361.245178 1066.110718,384.117523 1072.913940,407.078247 
	C1080.167236,431.558350 1084.778931,456.676117 1086.999268,482.163177 
	C1088.428345,498.568298 1090.511475,514.975891 1090.777954,531.407104 
	C1091.078369,549.932251 1089.992554,568.504395 1088.895996,587.019714 
	C1088.089966,600.626404 1087.124634,614.321533 1084.748291,627.714355 
	C1081.188232,647.779724 1076.652954,667.691406 1071.944336,687.528870 
	C1064.946777,717.007935 1054.146118,745.240479 1041.540527,772.696594 
	C1026.961792,804.450562 1009.935913,834.944763 988.883362,862.911804 
	C975.857666,880.215515 961.943176,896.875610 947.909241,913.383850 
	C941.081238,921.415649 940.724121,920.738281 948.913574,927.469177 
	C965.426331,941.040649 981.768494,954.821472 998.091248,968.622009 
	C1010.037170,978.721985 1021.786194,989.054626 1033.720337,999.168762 
	C1048.146851,1011.395203 1062.702637,1023.468994 1077.152466,1035.668091 
	C1089.471802,1046.068604 1101.720215,1056.552734 1114.000000,1067.000000 
	C1114.000000,1067.000000 1114.000000,1067.500000 1113.533325,1067.750244 
	C1107.631470,1067.671021 1102.195679,1067.350586 1096.761230,1067.010864 
	C1080.788696,1066.012329 1064.816650,1065.010498 1048.844849,1064.001343 
	C1038.473755,1063.346191 1028.104248,1062.668579 1017.733215,1062.013550 
	C1001.761536,1061.004395 985.793396,1059.932007 969.815796,1059.025269 
	C956.119873,1058.247925 942.412048,1057.683472 928.711304,1056.987793 
	C923.106934,1056.703247 917.502625,1056.387329 911.906738,1055.971436 
	C894.494812,1054.677734 877.093262,1053.238403 859.674805,1052.042236 
	C851.423828,1051.475586 843.141846,1051.373657 834.877563,1050.983765 
	C829.106201,1050.711548 823.336304,1050.372681 817.574036,1049.950562 
	C799.997925,1048.663452 782.428650,1047.279907 764.847534,1046.067627 
	C763.141418,1045.949829 761.290710,1046.546631 759.644043,1047.172241 
	C748.056274,1051.575684 736.637024,1056.461914 724.915405,1060.466553 
	C693.514160,1071.194580 661.552856,1079.829712 628.547363,1083.979980 
	C612.915527,1085.945679 597.211731,1087.337158 581.545715,1089.036987 
	C580.672607,1089.131714 579.847473,1089.668823 579.000000,1090.000000 
	C557.312439,1090.000000 535.624878,1090.000000 513.251770,1089.625977 
	C500.769562,1088.174072 488.902588,1087.585938 477.192505,1085.905029 
	C459.077454,1083.304565 440.872925,1080.819702 423.055878,1076.754150 
	C381.696014,1067.316284 341.886292,1053.115112 303.849243,1034.293701 
	C277.429962,1021.221069 251.885742,1006.475159 228.349548,988.666504 
	C210.560272,975.206360 192.777603,961.558350 176.371002,946.492249 
	C152.372238,924.454529 130.240463,900.536072 110.682724,874.309021 
	C94.319550,852.365723 79.125854,829.666199 66.375725,805.488220 
	C57.159313,788.011169 49.015411,769.935730 41.067577,751.831116 
	C31.745960,730.597046 24.412657,708.594238 19.022940,686.036011 
	C14.892114,668.746765 10.975322,651.361755 8.080678,633.834778 
	C5.304925,617.027588 3.980170,599.981323 1.976425,583.045044 
	C1.814611,581.677307 1.333007,580.347473 1.000000,579.000000 
M893.377197,224.127350 
	C774.886841,101.668823 631.046143,52.549389 463.077820,79.694206 
	C354.930756,97.171486 263.599182,148.999771 191.698029,231.623627 
	C87.574936,351.274719 50.875088,490.513672 83.325928,645.639282 
	C110.429779,775.204651 182.941330,875.189148 294.257782,946.544373 
	C355.677490,985.915283 423.263062,1008.481750 495.830109,1016.227478 
	C533.801331,1020.280457 571.689270,1019.757874 609.493652,1014.683044 
	C656.504089,1008.372375 701.535217,995.136963 744.635742,975.304565 
	C746.802673,974.307434 749.431396,973.679443 751.787781,973.822571 
	C793.525757,976.358643 835.254028,979.051575 876.986206,981.683533 
	C885.489868,982.219788 894.000427,982.646240 902.507874,983.123352 
	C902.597229,982.762512 902.686584,982.401672 902.775940,982.040833 
	C879.859802,962.584534 856.943665,943.128235 833.322083,923.072937 
	C940.381958,835.694458 1005.375977,725.230408 1017.107117,586.895508 
	C1028.828369,448.675934 986.464844,327.864929 893.377197,224.127350 
z"/>
<path fill="#FFFFFF" opacity="1.000000" stroke="none" 
	d="
M893.620361,224.383453 
	C986.464844,327.864929 1028.828369,448.675934 1017.107117,586.895508 
	C1005.375977,725.230408 940.381958,835.694458 833.322083,923.072937 
	C856.943665,943.128235 879.859802,962.584534 902.775940,982.040833 
	C902.686584,982.401672 902.597229,982.762512 902.507874,983.123352 
	C894.000427,982.646240 885.489868,982.219788 876.986206,981.683533 
	C835.254028,979.051575 793.525757,976.358643 751.787781,973.822571 
	C749.431396,973.679443 746.802673,974.307434 744.635742,975.304565 
	C701.535217,995.136963 656.504089,1008.372375 609.493652,1014.683044 
	C571.689270,1019.757874 533.801331,1020.280457 495.830109,1016.227478 
	C423.263062,1008.481750 355.677490,985.915283 294.257782,946.544373 
	C182.941330,875.189148 110.429779,775.204651 83.325928,645.639282 
	C50.875088,490.513672 87.574936,351.274719 191.698029,231.623627 
	C263.599182,148.999771 354.930756,97.171486 463.077820,79.694206 
	C631.046143,52.549389 774.886841,101.668823 893.620361,224.383453 
M449.241699,486.765961 
	C434.647491,510.825043 429.373749,536.872742 434.518127,564.448975 
	C445.482574,623.223450 497.103119,661.279907 556.615845,655.139832 
	C620.146667,648.585205 665.815552,585.789612 652.501160,523.295898 
	C642.950012,478.465729 607.978821,443.733704 564.682007,436.077301 
	C518.495117,427.909851 474.843658,446.921143 449.241699,486.765961 
z"/>
<path fill="#49C73B" opacity="1.000000" stroke="none" 
	d="
M449.450989,486.469055 
	C474.843658,446.921143 518.495117,427.909851 564.682007,436.077301 
	C607.978821,443.733704 642.950012,478.465729 652.501160,523.295898 
	C665.815552,585.789612 620.146667,648.585205 556.615845,655.139832 
	C497.103119,661.279907 445.482574,623.223450 434.518127,564.448975 
	C429.373749,536.872742 434.647491,510.825043 449.450989,486.469055 
z"/>
</svg>